<?xml version="1.0" encoding="UTF-8" standalone="no"?>
<!-- Created with Inkscape (http://www.inkscape.org/) -->

<svg
   xmlns:dc="http://purl.org/dc/elements/1.1/"
   xmlns:cc="http://creativecommons.org/ns#"
   xmlns:rdf="http://www.w3.org/1999/02/22-rdf-syntax-ns#"
   xmlns:svg="http://www.w3.org/2000/svg"
   xmlns="http://www.w3.org/2000/svg"
   xmlns:sodipodi="http://sodipodi.sourceforge.net/DTD/sodipodi-0.dtd"
   xmlns:inkscape="http://www.inkscape.org/namespaces/inkscape"
   width="120mm"
   height="120mm"
   viewBox="-60 -60 120 120"
   sodipodi:docname="horizontal_logo.svg"
   version="1.1"
   id="svg5373"
   inkscape:export-filename="C:\Users\victo\bitmap.png"
   inkscape:export-xdpi="96"
   inkscape:export-ydpi="96"
   inkscape:version="0.92.3 (2405546, 2018-03-11)">
  <defs
     id="defs5375" />
  <sodipodi:namedview
     pagecolor="#ffffff"
     bordercolor="#666666"
     borderopacity="1.0"
     inkscape:pageopacity="0.0"
     inkscape:pageshadow="2"
     inkscape:zoom="4"
     inkscape:cx="222.34887"
     inkscape:cy="138.69131"
     inkscape:document-units="mm"
     inkscape:current-layer="Template"
     showgrid="false"
     units="mm"
     showguides="true"
     inkscape:guide-bbox="true"
     inkscape:snap-global="true"
     inkscape:snap-bbox="true"
     inkscape:snap-bbox-midpoints="true"
     inkscape:window-width="3840"
     inkscape:window-height="2004"
     inkscape:window-x="-16"
     inkscape:window-y="-16"
     inkscape:window-maximized="1"
     inkscape:bbox-paths="true"
     inkscape:bbox-nodes="true"
     inkscape:snap-bbox-edge-midpoints="true"
     inkscape:snap-grids="true"
     id="namedview5363">
    <sodipodi:guide
       orientation="1,0"
       position="226.771653543,226.771653543"
       id="guide2827"
       inkscape:locked="false" />
    <sodipodi:guide
       orientation="0,1"
       position="226.771653543,226.771653543"
       id="guide2829"
       inkscape:locked="false" />
    <inkscape:grid
       type="xygrid"
       id="grid3072"
       empspacing="10"
       visible="true"
       enabled="true"
       snapvisiblegridlinesonly="true"
       units="mm"
       dotted="false"
       spacingx="0.1mm"
       spacingy="0.1mm" />
  </sodipodi:namedview>
  <metadata
     id="metadata2822">
    <rdf:RDF>
      <cc:Work
         rdf:about="">
        <dc:format>image/svg+xml</dc:format>
        <dc:type
           rdf:resource="http://purl.org/dc/dcmitype/StillImage" />
        <dc:title />
      </cc:Work>
    </rdf:RDF>
  </metadata>
  <g
     inkscape:label="Layer 1"
     inkscape:groupmode="layer"
     id="Template"
     style="fill:none;stroke:black;stroke-width:0.05">
    <path
       style="fill:#0c6752;stroke:#000000;stroke-width:0.05021821;stroke-opacity:0.11597936;fill-opacity:1"
       d="m -119.25602,3.3512864 c 0.061,-3.96195619 2.09672,-7.610911 4.57263,-10.5865288 2.62466,-2.8742566 6.05905,-5.1479466 9.89515,-5.9716306 4.01433,-0.748137 8.690526,0.636655 10.866612,4.2832679 3.639017,5.7277881 2.600083,13.6253197 -1.606507,18.7691335 -1.801158,2.0482996 -4.186042,3.5322216 -6.673655,4.6007636 -2.13268,0.901481 -4.68789,0.641254 -6.52582,-0.788924 -2.73815,-2.069089 -4.04544,-5.5655614 -4.28692,-8.8983199 -0.1882,-3.7358468 1.00939,-7.6827446 3.70571,-10.3467784 1.78726,-1.6041246 3.95131,-3.0376705 6.37975,-3.3219744 2.74894,0.037284 4.760215,2.5974983 5.146396,5.1519062 0.579178,3.23822679 -0.374698,6.5330303 -1.636275,9.4918321 -1.112591,2.1441697 -3.163441,4.1425894 -5.697331,4.2234093 -1.59033,-1.2670195 -2.29929,-2.4058365 -2.91398,-3.872458 -1.02966,-3.0578875 -0.11378,-6.99042514 2.83934,-8.6343029 1.64249,-1.2461867 3.68059,0.5538439 3.61945,2.34310565 0.51168,1.49859305 -1.72229,3.64933095 -2.63177,1.74850545 -0.24332,-1.19857524 -0.429,-2.5926524 -1.65576,-3.0822519 0.75367,-0.7917557 1.66112,0.023621 0.77343,0.77825411 -1.22823,1.74421313 -1.54566,4.17393919 -0.70782,6.05459089 0.66284,1.368834 1.90023,3.3886649 3.67797,2.9609029 -0.35072,0.6405755 -1.75348,0.7296991 -0.72539,-0.040454 2.05181,-2.8871739 2.78287,-6.5279151 2.71663,-10.0174791 -0.26772,-2.5360349 -2.05699,-5.4386127 -4.74645,-5.7510248 -0.53788,-0.038148 -2.46847,0.9449342 -1.06238,0.194702 -4.15993,3.0858685 -5.52691,8.9225003 -4.17354,13.7752168 0.78886,2.9420411 2.7466,5.960874 5.87356,6.718486 1.58919,0.391429 3.35154,0.207729 4.754178,-0.666083 -0.460263,0.545719 -1.764918,0.911032 -0.526448,0.213189 3.572697,-2.64719 5.389906,-7.0992166 5.790943,-11.4226695 0.257563,-4.0074011 -1.01158,-8.359617 -4.152312,-11.0135728 -3.307091,-2.3700557 -7.903491,-2.5752697 -11.532421,-0.8299297 0.4989,-0.424722 1.5279,-0.7445 0.43642,-0.136489 -2.9346,2.0163691 -5.17494,6.4282886 -6.52214,9.6758441 -0.44947,1.76264704 0.0498,2.4099079 -1.55975,3.5700455 -0.54936,0.3197902 -1.19798,0.441856 -1.7115,0.8277576 z"
       id="path4697"
       inkscape:connector-curvature="0"
       sodipodi:nodetypes="cccccccccccccccccccccccccccccccccccc"
       inkscape:export-xdpi="96"
       inkscape:export-ydpi="96" />
    <flowRoot
       transform="matrix(0.33852063,0,0,0.33852063,-132.75606,-315.96762)"
       xml:space="preserve"
       id="flowRoot4744"
       style="font-style:normal;font-weight:normal;font-size:106.66667175px;line-height:1.25;font-family:sans-serif;letter-spacing:0px;word-spacing:0px;fill:#0c6752;fill-opacity:1;stroke:none;"
       inkscape:export-xdpi="96"
       inkscape:export-ydpi="96"><flowRegion
         id="flowRegion4746"
         style="font-size:106.66667175px;fill:#0c6752;fill-opacity:1;"><rect
           id="rect4748"
           width="587.14288"
           height="182.85715"
           x="131.42857"
           y="865.37683"
           style="font-size:106.66667175px;fill:#0c6752;fill-opacity:1;" /></flowRegion><flowPara
         id="flowPara4750"
         style="font-style:normal;font-variant:normal;font-weight:normal;font-stretch:normal;font-size:120px;font-family:'Bauhaus 93';-inkscape-font-specification:'Bauhaus 93, ';letter-spacing:4.33098602px;fill:#0c6752;fill-opacity:1;">MASTER</flowPara></flowRoot>    <path
       style="fill:#0c6752;fill-opacity:1;stroke:#000000;stroke-width:0.05021821;stroke-opacity:0.11597936"
       d="m -99.943571,8.388325 c 1.541767,-0.3599778 2.173215,1.469042 2.830211,2.496355 0.649125,1.285584 1.896886,2.464469 3.407083,2.436278 0.628756,-0.06032 2.727757,-0.706275 1.342418,0.214134 -1.25647,1.071667 -3.078558,1.869407 -4.702208,1.174613 -1.815635,-0.641626 -2.558937,-2.5378 -3.554823,-4.013248 -0.30691,-0.685654 -2.10014,-0.634991 -0.6764,-1.3078681 0.44983,-0.3353179 0.90018,-0.6699508 1.353719,-1.0002623 z"
       id="path5297"
       inkscape:connector-curvature="0"
       inkscape:export-xdpi="96"
       inkscape:export-ydpi="96" />
  </g>
</svg>
