<?xml version="1.0" encoding="UTF-8" standalone="no"?>
<svg
   xmlns:dc="http://purl.org/dc/elements/1.1/"
   xmlns:cc="http://creativecommons.org/ns#"
   xmlns:rdf="http://www.w3.org/1999/02/22-rdf-syntax-ns#"
   xmlns:svg="http://www.w3.org/2000/svg"
   xmlns="http://www.w3.org/2000/svg"
   xmlns:sodipodi="http://sodipodi.sourceforge.net/DTD/sodipodi-0.dtd"
   xmlns:inkscape="http://www.inkscape.org/namespaces/inkscape"
   width="202.98633mm"
   height="47.17305mm"
   viewBox="0 0 202.98633 47.17305"
   version="1.1"
   id="svg844"
   inkscape:version="0.92.3 (2405546, 2018-03-11)"
   sodipodi:docname="website_header_logo.svg"
   inkscape:export-filename="C:\Users\victo\Dropbox\RUS66\QSA\Turbo\website_header_logo.png"
   inkscape:export-xdpi="96"
   inkscape:export-ydpi="96">
  <defs
     id="defs838" />
  <sodipodi:namedview
     id="base"
     pagecolor="#ffffff"
     bordercolor="#666666"
     borderopacity="1.0"
     inkscape:pageopacity="0.0"
     inkscape:pageshadow="2"
     inkscape:zoom="1.4"
     inkscape:cx="-38.359506"
     inkscape:cy="127.27513"
     inkscape:document-units="mm"
     inkscape:current-layer="flowRoot4744"
     showgrid="false"
     inkscape:window-width="3840"
     inkscape:window-height="2004"
     inkscape:window-x="-16"
     inkscape:window-y="-16"
     inkscape:window-maximized="1"
     fit-margin-top="0"
     fit-margin-left="0"
     fit-margin-right="0"
     fit-margin-bottom="0" />
  <metadata
     id="metadata841">
    <rdf:RDF>
      <cc:Work
         rdf:about="">
        <dc:format>image/svg+xml</dc:format>
        <dc:type
           rdf:resource="http://purl.org/dc/dcmitype/StillImage" />
        <dc:title />
      </cc:Work>
    </rdf:RDF>
  </metadata>
  <g
     inkscape:label="Layer 1"
     inkscape:groupmode="layer"
     id="layer1"
     transform="translate(-3.7502342,-55.377545)">
    <g
       aria-label="MASTER"
       transform="matrix(0.238125,0,0,0.238125,37.040973,-143.84783)"
       style="font-style:normal;font-weight:normal;font-size:106.66667175px;line-height:1.25;font-family:sans-serif;letter-spacing:0px;word-spacing:0px;fill:#0c6752;fill-opacity:1;stroke:none"
       id="flowRoot4744">
      <flowRoot
         xml:space="preserve"
         id="flowRoot820"
         style="fill:black;fill-opacity:1;stroke:none;font-family:sans-serif;font-style:normal;font-weight:normal;font-size:40px;line-height:1.25;letter-spacing:0px;word-spacing:0px"><flowRegion
           id="flowRegion822"><rect
             id="rect824"
             width="910"
             height="331.42856"
             x="-86.428574"
             y="-36.708157" /></flowRegion><flowPara
           id="flowPara826"></flowPara></flowRoot>      <path
         style="fill:#0c6752;fill-opacity:1;stroke:#000000;stroke-width:0.34999996;stroke-opacity:0.11597936"
         d="m -10.778555,836.82071 c -4.9694,0.013 -9.91377,0.4703 -14.72254,1.3665 -27.53146,4.1498 -52.26379,19.9082 -68.96573,41.6199 -17.256095,20.7389 -31.443745,46.1705 -31.869145,73.7837 3.57897,-2.6896 7.52536,-3.7175 11.35418,-5.9463 7.81435,-3.7546 7.87051,-13.3478 11.7544,-24.5279 9.389395,-22.6341 24.429465,-49.0522 44.882415,-63.1055 1.31401,-0.9266 4.83587,-3.1522 5.37088,-3.5049 20.27054,-10.7928 50.7805498,-9.6384 72.22858,5.7326 21.8897,18.4969 30.735,48.8301 28.93992,76.76 -2.04703,22.0686 -9.38933,44.6169 -22.95372,62.35329 -3.82367,-6.86709 -8.34932,-14.66979 -16.9770402,-12.65529 -3.16085,2.3021 -6.29979,4.6342 -9.43494,6.9713 -9.1715098,5.30829 0.71958996,4.29277 4.71473,9.11569 2.47472,3.6664 4.72865,7.7028 7.1743002,11.5855 -0.9431402,0.7651 -1.9031102,1.514 -2.8840802,2.2409 -1.30039,0.7327 -2.19202,1.2943 -2.76854,1.7117 -8.43012,3.25 -17.9397198,3.6012 -26.6963898,1.4444 -21.79366,-5.2802 -35.43829,-26.31999 -40.93633,-46.82479 -9.24426,-33.1473 -1.14982,-73.9413 27.37999,-94.1024 5.37056,-2.3256 6.2465,-2.2275 9.11161,-2.6681 18.5257298,0.1774 33.8402298,10.313 35.7061398,39.6131 3.8366802,24.3208 -8.18324,61.4169 -27.7646698,69.0574 -0.22375,0.1677 -3.09093,0.8564 -3.28252,1.0126 -8.75981,-5.2104 -13.3618,-13.819 -15.64642,-22.8281 -3.45289,-14.2122 0.92958,-27.9446 9.48972,-40.101 0.25701,-0.2185 0.4845,-0.4378 0.69933,-0.6569 3.30092,4.5426 4.28088,10.9522 5.45027,16.7145 6.33871,13.248 20.53839976,-0.8138 18.3421898,-12.1864 -2.57906,-11.7191 -12.9658898,-23.3595 -25.2259598,-16.3304 -20.08153,13.4259 -26.96572,38.8653 -19.78936,60.1774 4.28417,10.2218 9.22552,18.1591 20.30957,26.98967 17.66022,-0.5633 31.9536698,-14.49157 39.70791,-29.43547 9.4803,-20.7467 15.441,-43.5851 11.40439,-66.1541 -3.47279,-17.5845 -21.2168802,-37.0166 -48.06573,-35.7739 -16.92526,1.9815 -27.15566,11.1521 -36.02329,22.1804 -17.33394,22.0143 -23.38332,46.9153 -22.07104,72.9526 1.6831,23.228 10.79467,47.59699 29.87852,62.01769 12.8096,9.9677 30.61823,11.7811 45.4822398,5.4982 7.11242996,-3.0552 14.10361,-6.5985 20.7436302,-10.6997 3.85248,5.4572 8.42661,10.1952 15.05001,12.5358 11.31613,4.8424 24.01508,-0.7177 32.77217,-8.1868 9.65518,-6.4148 -4.97356,-1.9127 -9.35566,-1.4922 -9.57853,0.1789 -17.64162,-6.6102 -22.42461,-14.5859 3.44613,-2.9948 6.70533,-6.2005 9.72683,-9.63662 29.31814,-35.85017 36.55907,-90.89287 11.19659,-130.81317 -12.55967,-21.0471 -37.06926,-31.2833 -61.0128,-31.219 z"
         id="path4697"
         inkscape:connector-curvature="0"
         sodipodi:nodetypes="scccccccccccccccccccccccccccccccccccccccccccccs" />
      <path
         inkscape:connector-curvature="0"
         d="m 145.88762,893.53781 v 22.1065 h 9.72222 v 22.8588 h -9.72222 q 0,6.8866 2.14121,9.4908 2.19908,2.6041 7.98611,2.6041 v 22.7431 q -1.67823,0.058 -2.48842,0.058 -7.34954,0 -13.8889,-3.4144 -6.48148,-3.4143 -10.41666,-9.2592 -4.97685,-7.4653 -4.97685,-19.7917 v -47.3958 z"
         style="font-style:normal;font-variant:normal;font-weight:normal;font-stretch:normal;font-size:118.51851654px;line-height:1.25;font-family:'Bauhaus 93';-inkscape-font-specification:'Bauhaus 93, ';letter-spacing:14.36669827px;word-spacing:0px;fill:#0c6752;fill-opacity:1;stroke:none;stroke-width:1.11111104"
         id="path834" />
      <path
         inkscape:connector-curvature="0"
         d="m 180.56682,915.64431 h 21.64352 v 32.5811 q 0,4.9189 4.10879,4.9189 4.05093,0 4.05093,-4.9189 v -32.5811 h 21.64353 v 32.176 q 0,11.2268 -7.46528,18.9814 -7.46529,7.6968 -18.28705,7.6968 -12.32637,0 -19.84953,-8.9699 -5.84491,-7.0023 -5.84491,-19.4445 z"
         style="font-style:normal;font-variant:normal;font-weight:normal;font-stretch:normal;font-size:118.51851654px;line-height:1.25;font-family:'Bauhaus 93';-inkscape-font-specification:'Bauhaus 93, ';letter-spacing:14.36669827px;word-spacing:0px;fill:#0c6752;fill-opacity:1;stroke:none;stroke-width:1.11111104"
         id="path836" />
      <path
         inkscape:connector-curvature="0"
         d="m 290.70899,914.25541 v 23.1482 q -2.25695,-1.2732 -4.10879,-1.2732 -5.90278,0 -5.90278,9.0278 v 27.3727 H 259.0539 v -31.5394 q 0,-12.5 6.82871,-19.9074 6.8287,-7.4652 18.22915,-7.4652 2.5463,0 6.59723,0.6365 z"
         style="font-style:normal;font-variant:normal;font-weight:normal;font-stretch:normal;font-size:118.51851654px;line-height:1.25;font-family:'Bauhaus 93';-inkscape-font-specification:'Bauhaus 93, ';letter-spacing:14.36669827px;word-spacing:0px;fill:#0c6752;fill-opacity:1;stroke:none;stroke-width:1.11111104"
         id="path838" />
      <path
         inkscape:connector-curvature="0"
         d="m 331.75392,893.53781 v 47.2801 q 0,11.5163 8.27547,11.5163 3.53009,0 5.96063,-2.3727 2.48843,-2.4306 2.48843,-5.845 0,-3.53 -2.31481,-5.9027 -2.31482,-2.4306 -5.6713,-2.4306 -2.37269,0 -5.43982,2.0833 v -23.8425 q 3.81946,-0.3473 5.78704,-0.3473 12.21066,0 20.8912,8.7963 8.73844,8.7963 8.73844,21.1806 0,12.6736 -8.85418,21.3542 -8.85416,8.6805 -21.75924,8.6805 -6.48149,0 -12.67363,-2.8356 -6.13424,-2.8357 -10.12731,-7.6389 -6.94443,-8.3334 -6.94443,-21.5857 v -48.0903 z"
         style="font-style:normal;font-variant:normal;font-weight:normal;font-stretch:normal;font-size:118.51851654px;line-height:1.25;font-family:'Bauhaus 93';-inkscape-font-specification:'Bauhaus 93, ';letter-spacing:14.36669827px;word-spacing:0px;fill:#0c6752;fill-opacity:1;stroke:none;stroke-width:1.11111104"
         id="path840" />
      <path
         inkscape:connector-curvature="0"
         d="m 421.64145,913.61891 q 12.26853,0 21.00696,8.8541 8.79629,8.7963 8.79629,21.1227 0,12.5 -8.91205,21.2963 -8.85415,8.7963 -21.41203,8.7963 -12.55787,0 -21.4699,-8.7963 -8.91204,-8.8541 -8.91204,-21.2963 0,-12.6736 8.91204,-21.2963 8.91203,-8.6805 21.99073,-8.6805 z m -0.5787,21.3541 q -3.47222,0 -5.90277,2.5463 -2.43056,2.4885 -2.43056,6.1343 0,3.5879 2.43056,6.1343 2.48843,2.5463 5.90277,2.5463 3.47223,0 5.90278,-2.5463 2.48842,-2.5464 2.48842,-6.1343 0,-3.6458 -2.43054,-6.1343 -2.43057,-2.5463 -5.96066,-2.5463 z"
         style="font-style:normal;font-variant:normal;font-weight:normal;font-stretch:normal;font-size:118.51851654px;line-height:1.25;font-family:'Bauhaus 93';-inkscape-font-specification:'Bauhaus 93, ';letter-spacing:14.36669827px;word-spacing:0px;fill:#0c6752;fill-opacity:1;stroke:none;stroke-width:1.11111104"
         id="path842" />
      <path
         inkscape:connector-curvature="0"
         d="m 501.9225,979.82261 v -6.8866 q -13.7731,-3.8194 -22.0486,-14.7569 -8.2176,-10.9376 -8.2176,-25.3473 0,-19.0393 14.3519,-31.1921 11.9213,-10.0694 27.1412,-10.0694 19.618,0 31.6551,14.1782 9.7222,11.4583 9.7222,26.4468 0,14.699 -8.6227,26.331 -7.7546,10.5324 -21.6435,14.4097 v 6.8866 z m 0.8102,-40.625 h 20.7755 v 8.8541 q 6.9444,-5.9606 6.9444,-15.1041 0,-7.3496 -5.1505,-12.7315 -5.1504,-5.382 -12.1527,-5.382 -7.0602,0 -12.2107,5.382 -5.1505,5.3819 -5.1505,12.7315 0,9.375 6.9445,15.1041 z"
         style="font-style:normal;font-variant:normal;font-weight:normal;font-stretch:normal;font-size:118.51851654px;line-height:1.25;font-family:'Bauhaus 93';-inkscape-font-specification:'Bauhaus 93, ';letter-spacing:14.36669827px;word-spacing:0px;fill:#0c6752;fill-opacity:1;stroke:none;stroke-width:1.11111104"
         id="path844" />
      <path
         inkscape:connector-curvature="0"
         d="m 617.0415,893.19061 v 22.5116 q -2.5463,-0.8681 -3.9352,-0.8681 -2.662,0 -4.5717,1.9676 -1.9098,1.9676 -1.9098,4.7454 0,2.3727 2.0834,6.0185 l 1.794,3.125 q 4.8611,8.4491 4.8611,16.3195 0,11.5162 -8.2176,19.5023 -8.1597,7.9861 -19.9653,7.9861 -5.6713,0 -11.2268,-2.6042 v -22.8588 q 3.3564,2.1412 5.9606,2.1412 3.0671,0 5.0926,-1.7361 2.0833,-1.794 2.0833,-4.456 0,-1.7361 -3.2986,-7.581 -5.2662,-9.2593 -5.2662,-18.5185 0,-11.169 7.9283,-19.213 7.9861,-8.1018 19.0393,-8.1018 4.8611,0 9.5486,1.6203 z"
         style="font-style:normal;font-variant:normal;font-weight:normal;font-stretch:normal;font-size:118.51851654px;line-height:1.25;font-family:'Bauhaus 93';-inkscape-font-specification:'Bauhaus 93, ';letter-spacing:14.36669827px;word-spacing:0px;fill:#0c6752;fill-opacity:1;stroke:none;stroke-width:1.11111104"
         id="path846" />
      <path
         inkscape:connector-curvature="0"
         d="m 672.0332,932.88971 v 20.8333 h -6.7708 v 18.8079 H 641.767 v -50.2315 q 0,-14.5833 7.9282,-22.6273 7.9862,-8.1018 22.3959,-8.1018 13.8889,0 20.544,7.3495 6.655,7.2917 6.655,22.5694 v 51.0417 h -23.4953 v -49.4792 q 0,-4.6296 -1.0996,-6.4236 -1.0995,-1.794 -3.9351,-1.794 -5.4977,0 -5.4977,8.2176 v 9.838 z"
         style="font-style:normal;font-variant:normal;font-weight:normal;font-stretch:normal;font-size:118.51851654px;line-height:1.25;font-family:'Bauhaus 93';-inkscape-font-specification:'Bauhaus 93, ';letter-spacing:14.36669827px;word-spacing:0px;fill:#0c6752;fill-opacity:1;stroke:none;stroke-width:1.11111104"
         id="path848" />
    </g>
  </g>
</svg>
