<?xml version="1.0" encoding="UTF-8" standalone="no"?>
<svg
   xmlns:dc="http://purl.org/dc/elements/1.1/"
   xmlns:cc="http://creativecommons.org/ns#"
   xmlns:rdf="http://www.w3.org/1999/02/22-rdf-syntax-ns#"
   xmlns:svg="http://www.w3.org/2000/svg"
   xmlns="http://www.w3.org/2000/svg"
   xmlns:sodipodi="http://sodipodi.sourceforge.net/DTD/sodipodi-0.dtd"
   xmlns:inkscape="http://www.inkscape.org/namespaces/inkscape"
   width="202.98633mm"
   height="47.17305mm"
   viewBox="0 0 202.98633 47.17305"
   version="1.1"
   id="svg844"
   inkscape:version="0.92.3 (2405546, 2018-03-11)"
   sodipodi:docname="MasterQSA Logo Horizontal Plain.svg">
  <defs
     id="defs838" />
  <sodipodi:namedview
     id="base"
     pagecolor="#ffffff"
     bordercolor="#666666"
     borderopacity="1.0"
     inkscape:pageopacity="0.0"
     inkscape:pageshadow="2"
     inkscape:zoom="1.4"
     inkscape:cx="172.35478"
     inkscape:cy="127.27513"
     inkscape:document-units="mm"
     inkscape:current-layer="layer1"
     showgrid="false"
     inkscape:window-width="3840"
     inkscape:window-height="2004"
     inkscape:window-x="-16"
     inkscape:window-y="-16"
     inkscape:window-maximized="1"
     fit-margin-top="0"
     fit-margin-left="0"
     fit-margin-right="0"
     fit-margin-bottom="0" />
  <metadata
     id="metadata841">
    <rdf:RDF>
      <cc:Work
         rdf:about="">
        <dc:format>image/svg+xml</dc:format>
        <dc:type
           rdf:resource="http://purl.org/dc/dcmitype/StillImage" />
        <dc:title></dc:title>
      </cc:Work>
    </rdf:RDF>
  </metadata>
  <g
     inkscape:label="Layer 1"
     inkscape:groupmode="layer"
     id="layer1"
     transform="translate(-3.7502342,-55.377545)">
    <path
       style="fill:#0c6752;fill-opacity:1;stroke:#000000;stroke-width:0.08334374;stroke-opacity:0.11597936"
       d="m 31.310321,55.419288 c -1.183338,0.0031 -2.360718,0.111993 -3.505806,0.325397 -6.555928,0.988161 -12.445314,4.740635 -16.422463,9.910745 -4.1091074,4.938433 -7.4875404,10.994353 -7.5888404,17.569741 0.852244,-0.640453 1.791977,-0.88523 2.703716,-1.415965 1.860791,-0.894076 1.874165,-3.178449 2.799015,-5.840703 2.2358484,-5.389747 5.8172664,-11.680564 10.6876254,-15.026997 0.312897,-0.220645 1.151541,-0.750612 1.27894,-0.834606 4.826922,-2.570028 12.092118,-2.295148 17.199429,1.365064 5.212485,4.404591 7.318773,11.627677 6.891318,18.27849 -0.487449,5.255075 -2.235834,10.624402 -5.465853,14.847884 -0.910512,-1.635247 -1.988181,-3.493249 -4.042656,-3.013561 -0.752679,0.548194 -1.500138,1.103533 -2.246697,1.660037 -2.183967,1.26406 0.171351,1.022222 1.122696,2.170681 0.589293,0.87307 1.126008,1.834232 1.70838,2.758805 -0.224586,0.182187 -0.453177,0.360513 -0.686772,0.533601 -0.309654,0.174483 -0.521973,0.308205 -0.659259,0.407601 -2.007423,0.773928 -4.271895,0.857556 -6.357078,0.343953 -5.189614,-1.257354 -8.438743,-6.267445 -9.747963,-11.150151 -2.201289,-7.893196 -0.273801,-17.607264 6.519861,-22.408145 1.278864,-0.553781 1.487448,-0.530421 2.169702,-0.635333 4.41144,0.04224 8.058204,2.455779 8.502525,9.432866 0.913608,5.791392 -1.948635,14.624912 -6.611463,16.4443 -0.05328,0.03994 -0.736029,0.203937 -0.78165,0.241114 -2.08593,-1.240708 -3.181779,-3.290633 -3.725803,-5.43592 -0.82222,-3.384284 0.221356,-6.654313 2.259739,-9.549062 0.0612,-0.05203 0.115371,-0.104254 0.166527,-0.156433 0.786033,1.081725 1.019385,2.608009 1.297845,3.980152 1.509408,3.154668 4.890708,-0.19378 4.367736,-2.901892 -0.614142,-2.790614 -3.087504,-5.562487 -6.006933,-3.88867 -4.781913,3.197039 -6.421212,9.254785 -4.712342,14.329751 1.020169,2.434056 2.196828,4.324124 4.836218,6.426909 4.20534,-0.134129 7.608969,-3.450808 9.455445,-7.009337 2.257497,-4.940288 3.676887,-10.378682 2.715669,-15.752944 -0.826956,-4.187291 -5.052267,-8.814573 -11.445651,-8.518651 -4.030327,0.47184 -6.46644,2.655585 -8.578046,5.281699 -4.127644,5.242169 -5.568151,11.171723 -5.255665,17.371856 0.400787,5.531151 2.570481,11.334031 7.114822,14.767956 3.050287,2.37357 7.290965,2.80537 10.830458,1.30925 1.693647,-0.7275 3.358422,-1.57125 4.939578,-2.547847 0.91737,1.299487 2.006586,2.427717 3.583782,2.985077 2.694654,1.1531 5.718591,-0.17089 7.803873,-1.94947 2.29914,-1.527529 -1.184328,-0.455458 -2.227815,-0.355351 -2.280888,0.04257 -4.200912,-1.574046 -5.339862,-3.47325 0.820611,-0.713137 1.596708,-1.476502 2.316204,-2.294718 6.981381,-8.536839 8.705628,-21.64387 2.666187,-31.149889 -2.990772,-5.011845 -8.827119,-7.449339 -14.528673,-7.434034 z"
       id="path4697"
       inkscape:connector-curvature="0"
       sodipodi:nodetypes="scccccccccccccccccccccccccccccccccccccccccccccs" />
    <g
       aria-label="MASTER"
       transform="matrix(0.238125,0,0,0.238125,37.040973,-143.84783)"
       style="font-style:normal;font-weight:normal;font-size:106.66667175px;line-height:1.25;font-family:sans-serif;letter-spacing:0px;word-spacing:0px;fill:#0c6752;fill-opacity:1;stroke:none"
       id="flowRoot4744">
      <path
         d="M 137.81445,975.68325 V 918.027 q 0,-10.72265 6.50391,-17.51953 6.50391,-6.79687 16.875,-6.79687 12.30469,0 18.92578,11.30859 4.04297,-6.09375 8.67188,-8.67188 4.6289,-2.63671 11.42578,-2.63671 10.78125,0 16.52343,6.79687 5.74219,6.79688 5.74219,19.57031 v 55.60547 H 198.69336 V 923.652 q 0,-3.86719 -0.64453,-5.09765 -0.58594,-1.28907 -2.46094,-1.28907 -3.51562,0 -3.51562,5.97657 v 52.4414 H 168.2832 V 923.652 q 0,-3.80859 -0.64453,-5.09765 -0.64453,-1.28907 -2.51953,-1.28907 -3.51562,0 -3.51562,6.38672 v 52.03125 z"
         style="font-style:normal;font-variant:normal;font-weight:normal;font-stretch:normal;font-size:120px;font-family:'Bauhaus 93';-inkscape-font-specification:'Bauhaus 93, ';letter-spacing:34.27999878px;fill:#0c6752;fill-opacity:1"
         id="path817"
         inkscape:connector-curvature="0" />
      <path
         d="m 300.23898,935.54653 v 21.09375 h -6.85547 v 19.04297 h -23.78906 v -50.85937 q 0,-14.76563 8.02735,-22.91016 8.08593,-8.20312 22.67578,-8.20312 14.0625,0 20.80078,7.4414 6.73828,7.38281 6.73828,22.85156 v 51.67969 H 304.04758 V 925.5856 q 0,-4.6875 -1.11328,-6.50391 -1.11329,-1.81641 -3.98438,-1.81641 -5.56641,0 -5.56641,8.32032 v 9.96093 z"
         style="font-style:normal;font-variant:normal;font-weight:normal;font-stretch:normal;font-size:120px;font-family:'Bauhaus 93';-inkscape-font-specification:'Bauhaus 93, ';letter-spacing:34.27999878px;fill:#0c6752;fill-opacity:1"
         id="path819"
         inkscape:connector-curvature="0" />
      <path
         d="m 414.08929,895.35122 v 22.79297 q -2.57812,-0.87891 -3.98437,-0.87891 -2.69531,0 -4.62891,1.99219 -1.93359,1.99219 -1.93359,4.80469 0,2.40234 2.10937,6.09375 l 1.81641,3.16406 q 4.92188,8.55469 4.92188,16.52344 0,11.66015 -8.32032,19.74609 -8.26172,8.08594 -20.21484,8.08594 -5.74219,0 -11.36719,-2.63672 v -23.14453 q 3.39844,2.16797 6.03516,2.16797 3.10547,0 5.15625,-1.75781 2.10937,-1.81641 2.10937,-4.51172 0,-1.75782 -3.33984,-7.67578 -5.33203,-9.375 -5.33203,-18.75 0,-11.3086 8.02734,-19.45313 8.08594,-8.20312 19.27735,-8.20312 4.92187,0 9.66796,1.64062 z"
         style="font-style:normal;font-variant:normal;font-weight:normal;font-stretch:normal;font-size:120px;font-family:'Bauhaus 93';-inkscape-font-specification:'Bauhaus 93, ';letter-spacing:34.27999878px;fill:#0c6752;fill-opacity:1"
         id="path821"
         inkscape:connector-curvature="0" />
      <path
         d="m 495.30289,918.67153 v 57.01172 h -23.78907 v -57.01172 h -18.22265 v -22.96875 h 60.17578 v 22.96875 z"
         style="font-style:normal;font-variant:normal;font-weight:normal;font-stretch:normal;font-size:120px;font-family:'Bauhaus 93';-inkscape-font-specification:'Bauhaus 93, ';letter-spacing:34.27999878px;fill:#0c6752;fill-opacity:1"
         id="path823"
         inkscape:connector-curvature="0" />
      <path
         d="m 599.30945,926.81606 v 17.8125 H 583.7821 q -3.16406,0 -4.51171,0.9375 -1.28907,0.9375 -1.28907,3.16407 0,2.51953 1.34766,3.33984 1.34766,0.76172 5.50781,0.76172 h 15.9961 v 22.85156 h -18.69141 q -13.18359,0 -20.15625,-6.26953 -6.97266,-6.32812 -6.97266,-18.22266 v -31.34765 q 0,-11.48438 6.5625,-17.8125 6.6211,-6.32813 18.57422,-6.32813 h 20.6836 v 22.96875 H 585.6571 q -6.15234,0 -6.15234,3.98438 0,2.34375 1.46484,3.28125 1.46485,0.8789 5.21485,0.8789 z"
         style="font-style:normal;font-variant:normal;font-weight:normal;font-stretch:normal;font-size:120px;font-family:'Bauhaus 93';-inkscape-font-specification:'Bauhaus 93, ';letter-spacing:34.27999878px;fill:#0c6752;fill-opacity:1"
         id="path825"
         inkscape:connector-curvature="0" />
      <path
         d="m 672.61288,917.20669 v 58.47656 h -23.78906 v -79.98047 h 30.52735 q 13.94531,0 21.62109,6.91407 8.55469,7.73437 8.55469,19.6289 0,12.12891 -10.60547,20.44922 l 13.71094,32.98828 H 687.67148 L 676.12851,949.902 v -20.5664 h 1.875 q 7.5,0 7.5,-6.44532 0,-5.68359 -8.67188,-5.68359 z"
         style="font-style:normal;font-variant:normal;font-weight:normal;font-stretch:normal;font-size:120px;font-family:'Bauhaus 93';-inkscape-font-specification:'Bauhaus 93, ';letter-spacing:34.27999878px;fill:#0c6752;fill-opacity:1"
         id="path827"
         inkscape:connector-curvature="0" />
    </g>
  </g>
</svg>
